# xmcd CD database file
#
# Track frame offsets:
#	150
#	22437
#	43220
#	63103
#	98470
#	119445
#	144679
#	173843
#	209990
#	236695
#	259901
#	289294
#	318215
#
# Disc length: 4531 seconds
#
# Revision: 0
# Processed by: cddbd v1.5.1PL0 Copyright (c) Steve Scherf et al.
# Submitted via: CDex 1.51
#
DISCID=cd11b10d
DTITLE=Sijano Vodjani - Karma - Love and Compassion [Cd2]
DYEAR=2004
DGENRE=New Age
TTITLE0=Om Gatey Gatey
TTITLE1=Tibetan Flair
TTITLE2=Sacred Buddha
TTITLE3=Straight To The Heart
TTITLE4=Out Of Bardo
TTITLE5=Ocean Of Joy
TTITLE6=Karmapa Jenno Ii
TTITLE7=Tsoklu
TTITLE8=Cutting Through
TTITLE9=Dancing Dakini
TTITLE10=Dosa
TTITLE11=Indian Colours
TTITLE12=Om A Hung Pensa Guru
EXTD=YEAR: 2004
EXTT0=
EXTT1=
EXTT2=
EXTT3=
EXTT4=
EXTT5=
EXTT6=
EXTT7=
EXTT8=
EXTT9=
EXTT10=
EXTT11=
EXTT12=
PLAYORDER=
